<svg xmlns="http://www.w3.org/2000/svg" viewBox="0 0 122.14 122.88"><defs><style>.cls-1{fill:#fff;}</style></defs><g id="katman_2" data-name="katman 2"><g id="Layer_1" data-name="Layer 1"><path class="cls-1" d="M35.14,0H87a35.27,35.27,0,0,1,35.14,35.14V87.75a35,35,0,0,1-10.32,24.79l0,0A35,35,0,0,1,87,122.88H35.14a35.08,35.08,0,0,1-24.82-10.32l-.24-.27A35,35,0,0,1,0,87.74V35.14A35.24,35.24,0,0,1,35.14,0Z"/><path d="M91.51,31l.07.11h21.6A26.6,26.6,0,0,0,87,8.66H78.13L91.51,31Z"/><polygon points="81.52 31.13 68.07 8.66 38.57 8.66 52.18 31.13 81.52 31.13 81.52 31.13"/><path d="M42.11,31.13,29,9.39A26.68,26.68,0,0,0,9,31.13Z"/><path d="M113.48,39.79H8.66v48a26.4,26.4,0,0,0,7.56,18.48l.22.21a26.43,26.43,0,0,0,18.7,7.79H87a26.39,26.39,0,0,0,18.69-7.77l0,0a26.39,26.39,0,0,0,7.77-18.69v-48Z"/><path class="cls-1" d="M51,55,77.78,72.4a4.14,4.14,0,0,1,1.13,1.08,3.9,3.9,0,0,1-1,5.42L51.19,94.67a3.92,3.92,0,0,1-6.39-3V58.15h0A3.9,3.9,0,0,1,51,55Z"/></g></g></svg>